<?xml version="1.0" encoding="utf-8"?>
<!-- Generator: Adobe Illustrator 16.0.0, SVG Export Plug-In . SVG Version: 6.00 Build 0)  -->
<!DOCTYPE svg PUBLIC "-//W3C//DTD SVG 1.1//EN" "http://www.w3.org/Graphics/SVG/1.1/DTD/svg11.dtd">
<svg version="1.1" id="Layer_1" xmlns="http://www.w3.org/2000/svg" xmlns:xlink="http://www.w3.org/1999/xlink" x="0px" y="0px"
	 width="1247px" height="1247px" viewBox="0 0 1247 1247" enable-background="new 0 0 1247 1247" xml:space="preserve">
<g>
	<defs>
		<rect id="SVGID_1_" x="314.995" y="437.795" width="589.341" height="342.41"/>
	</defs>
	<clipPath id="SVGID_2_">
		<use xlink:href="#SVGID_1_"  overflow="visible"/>
	</clipPath>
	<path clip-path="url(#SVGID_2_)" fill="#2C2C2C" d="M417.441,575.406c2.896,1.956,6.247,3.604,10.05,4.944
		c3.803,1.341,7.587,2.01,11.354,2.01c2.751,0,5.16-0.362,7.225-1.087c2.064-0.723,3.096-2.136,3.096-4.237
		c0-1.666-0.489-2.86-1.466-3.586c-0.978-0.723-2.374-1.412-4.183-2.064l-10.105-2.933c-5.65-1.666-9.959-4.002-12.929-7.008
		c-2.972-3.005-4.454-7.297-4.454-12.875c0-3.331,0.651-6.265,1.955-8.801c1.304-2.534,3.097-4.672,5.378-6.41
		c2.282-1.739,4.961-3.059,8.04-3.966c3.078-0.904,6.355-1.358,9.833-1.358c4.563,0,8.511,0.454,11.843,1.358
		c3.33,0.907,6.373,2.119,9.127,3.64v16.08c-3.043-2.1-6.212-3.729-9.508-4.889c-3.297-1.158-6.863-1.738-10.701-1.738
		c-2.537,0-4.637,0.38-6.302,1.14c-1.667,0.761-2.499,1.975-2.499,3.64c0,1.521,0.488,2.645,1.467,3.368
		c0.977,0.725,2.336,1.377,4.074,1.956l10.104,3.042c6.156,1.884,10.648,4.473,13.473,7.769c2.825,3.297,4.237,7.515,4.237,12.657
		c0,3.623-0.724,6.736-2.173,9.344c-1.45,2.608-3.405,4.764-5.867,6.464c-2.464,1.703-5.342,2.972-8.637,3.803
		c-3.297,0.832-6.828,1.25-10.594,1.25c-4.492,0-8.637-0.543-12.44-1.63c-3.802-1.087-6.937-2.353-9.398-3.803V575.406z"/>
</g>
<g>
	<defs>
		<polygon id="SVGID_3_" points="407.182,437.795 407.182,470.618 531.914,470.618 531.914,595.799 564.821,595.799 
			564.821,437.795 		"/>
	</defs>
	<clipPath id="SVGID_4_">
		<use xlink:href="#SVGID_3_"  overflow="visible"/>
	</clipPath>
	<polygon clip-path="url(#SVGID_4_)" fill="none" stroke="#000000" stroke-width="65.848" stroke-miterlimit="10" points="
		407.183,470.618 407.183,437.795 564.822,437.795 564.822,595.799 531.914,595.799 531.914,470.618 	"/>
</g>
<g>
	<defs>
		<polygon id="SVGID_5_" points="314.995,529.983 314.995,687.986 472.634,687.986 472.634,655.163 347.902,655.163 
			347.902,529.983 		"/>
	</defs>
	<clipPath id="SVGID_6_">
		<use xlink:href="#SVGID_5_"  overflow="visible"/>
	</clipPath>
	<polygon clip-path="url(#SVGID_6_)" fill="none" stroke="#000000" stroke-width="65.848" stroke-miterlimit="10" points="
		472.634,655.162 472.634,687.985 314.995,687.985 314.995,529.982 347.903,529.982 347.903,655.162 	"/>
</g>
<g>
	<defs>
		<rect id="SVGID_7_" x="314.995" y="437.795" width="589.341" height="342.41"/>
	</defs>
	<clipPath id="SVGID_8_">
		<use xlink:href="#SVGID_7_"  overflow="visible"/>
	</clipPath>
	<path clip-path="url(#SVGID_8_)" fill="#424242" d="M533.98,678.118c1.404,0.948,3.029,1.747,4.873,2.396
		c1.844,0.65,3.678,0.975,5.504,0.975c1.334,0,2.502-0.175,3.504-0.527c1-0.35,1.501-1.034,1.501-2.054
		c0-0.808-0.237-1.387-0.712-1.738c-0.474-0.351-1.15-0.685-2.027-1.001l-4.9-1.423c-2.739-0.807-4.829-1.939-6.268-3.397
		c-1.441-1.456-2.161-3.537-2.161-6.242c0-1.615,0.317-3.037,0.95-4.268c0.631-1.229,1.5-2.265,2.607-3.107
		c1.106-0.842,2.404-1.483,3.899-1.923c1.492-0.438,3.081-0.658,4.766-0.658c2.212,0,4.126,0.22,5.742,0.658
		c1.615,0.439,3.09,1.027,4.425,1.765v7.796c-1.474-1.018-3.012-1.808-4.609-2.37c-1.598-0.561-3.328-0.843-5.19-0.843
		c-1.229,0-2.247,0.185-3.054,0.553c-0.809,0.369-1.211,0.958-1.211,1.766c0,0.737,0.236,1.282,0.711,1.633
		c0.473,0.351,1.132,0.668,1.974,0.948l4.9,1.475c2.985,0.914,5.163,2.169,6.532,3.767c1.369,1.599,2.055,3.645,2.055,6.138
		c0,1.756-0.352,3.266-1.054,4.529c-0.703,1.265-1.652,2.311-2.845,3.135c-1.194,0.825-2.59,1.44-4.187,1.844
		c-1.6,0.404-3.311,0.605-5.137,0.605c-2.178,0-4.188-0.263-6.031-0.79c-1.844-0.526-3.364-1.141-4.557-1.844V678.118z"/>
	<polygon clip-path="url(#SVGID_8_)" fill="#424242" points="586.553,655.677 586.553,662.947 571.75,662.947 571.75,668.004 
		585.289,668.004 585.289,675.115 571.75,675.115 571.75,680.699 586.553,680.699 586.553,688.021 563.428,688.021 563.428,655.677 
			"/>
	<path clip-path="url(#SVGID_8_)" fill="#424242" d="M591.662,671.85c0-2.528,0.404-4.82,1.213-6.875
		c0.807-2.055,1.939-3.811,3.396-5.268s3.205-2.582,5.243-3.372c2.036-0.79,4.284-1.185,6.742-1.185c1.72,0,3.266,0.193,4.636,0.579
		c1.37,0.388,2.563,0.932,3.582,1.634v8.217c-2.283-1.755-4.793-2.633-7.533-2.633c-2.705,0-4.846,0.781-6.426,2.343
		c-1.582,1.564-2.371,3.75-2.371,6.56c0,2.774,0.789,4.943,2.371,6.506c1.58,1.563,3.721,2.344,6.426,2.344
		c1.334,0,2.634-0.202,3.899-0.606c1.263-0.402,2.475-1.061,3.634-1.975v8.218c-1.019,0.702-2.212,1.247-3.582,1.633
		c-1.37,0.387-2.916,0.579-4.636,0.579c-2.458,0-4.706-0.395-6.742-1.185c-2.038-0.79-3.786-1.914-5.243-3.371
		s-2.589-3.214-3.396-5.268C592.066,676.669,591.662,674.378,591.662,671.85"/>
	<path clip-path="url(#SVGID_8_)" fill="#424242" d="M636.702,688.548c-2.144,0-4.082-0.299-5.82-0.896
		c-1.739-0.596-3.223-1.475-4.451-2.633c-1.23-1.159-2.179-2.6-2.845-4.32c-0.668-1.72-1.001-3.688-1.001-5.9v-19.122h8.429v18.385
		c0,2.317,0.5,4.057,1.501,5.216c1,1.158,2.396,1.738,4.188,1.738c1.756,0,3.135-0.58,4.136-1.738
		c1.001-1.159,1.501-2.898,1.501-5.216v-18.385h8.428v19.176c0,2.212-0.334,4.17-1.001,5.873c-0.667,1.704-1.614,3.135-2.844,4.294
		c-1.229,1.158-2.704,2.037-4.425,2.633C640.776,688.249,638.845,688.548,636.702,688.548"/>
	<path clip-path="url(#SVGID_8_)" fill="#424242" d="M665.78,677.328v10.694h-8.376v-32.346h14.54c1.72,0,3.31,0.246,4.767,0.738
		s2.695,1.203,3.714,2.133c1.019,0.932,1.817,2.081,2.397,3.451c0.579,1.369,0.869,2.932,0.869,4.688
		c0,2.459-0.571,4.513-1.712,6.162c-1.142,1.652-2.713,2.846-4.715,3.582l7.586,11.591h-9.377l-6.743-10.694H665.78z
		 M665.78,670.585h5.269c1.509,0,2.615-0.351,3.318-1.054c0.702-0.702,1.054-1.65,1.054-2.844c0-1.194-0.352-2.143-1.054-2.846
		c-0.703-0.702-1.81-1.053-3.318-1.053h-5.269V670.585z"/>
	<rect x="689.801" y="655.676" clip-path="url(#SVGID_8_)" fill="#424242" width="8.481" height="32.346"/>
	<polygon clip-path="url(#SVGID_8_)" fill="#424242" points="703.919,655.677 732.365,655.677 732.365,662.947 722.355,662.947 
		722.355,688.021 713.875,688.021 713.875,662.947 703.919,662.947 	"/>
	<polygon clip-path="url(#SVGID_8_)" fill="#424242" points="758.967,655.677 767.869,655.677 756.175,676.538 756.175,688.021 
		747.693,688.021 747.693,676.538 736.21,655.677 745.376,655.677 752.171,668.32 	"/>
</g>
</svg>
